<svg xmlns="http://www.w3.org/2000/svg" width="562.125" height="628.87598" version="1.0" style="display:inline">
  <g style="display:inline">
    <path style="fill:#050066;fill-opacity:1;fill-rule:evenodd;stroke:#000;stroke-width:3px;stroke-linecap:butt;stroke-linejoin:miter;stroke-opacity:1" d="M92.46875-208.46843C70.688252-208.35801-48.150622-199.20925-133-182.87468c-34.10199 57.96393-53.25 118.68765-53.25 202.03125 0 83.25504 44.11152 313.85772 279.5625 398.15625C328.76345 333.01429 372.875 102.41161 372.875 19.15657c0-83.3436-19.14798-144.06732-53.25-202.03125-84.86127-16.33686-205.37574-25.70417-227.15625-25.59375z" transform="translate(187.75 209.96943)"/>
    <path style="fill:#d9871b;fill-opacity:1;fill-rule:evenodd;stroke:none" d="M-157.375 149.37532c31.75982 91.87026 102.568638 200.10114 250.6875 251.34375C241.43135 349.47649 312.24017 241.24558 344 149.37532c-34.59456 85.40487-106.91562 181.93362-250.6875 228.84375-143.771907-46.91013-216.09294-143.43888-250.6875-228.84375z" transform="translate(187.75 209.96943)"/>
    <path style="fill:#fff;fill-rule:evenodd;stroke:none;display:inline" d="M-120.0625-161.12468c-22.06422 31.98526-34.21875 66.684249-34.21875 111.65625 0 38.646927 20.72904 127.066653 112.59375 193.03125L93.125-19.28093-18.25-127.18718l-101.8125-33.9375zM306.59375-161.21843l-102 34.03125L93.125-19.28093l135 162.9375c92.00805-65.977374 112.78125-154.454424 112.78125-193.125 0-45.022107-12.2016-79.73501-34.3125-111.75z" transform="translate(187.75 209.96943)"/>
    <g style="stroke:none;display:inline">
      <path d="M93.254906 63.469834 56.111003 27.231963 22.248837 16.223986l30.365785 18.529153 40.640284 28.441103-41.600669-27.649136-35.789748-9.498087 32.809882 18.200517 44.580535 19.070067-45.217335-18.075804-35.791393-1.856712 34.126682 9.890628 46.882046 9.758481-47.202247-8.343583-33.974165 4.601211 34.563413 3.681168 46.612999.483434-46.02952 1.04616-31.691802 11.153292 34.768757-3.433218 42.952565-8.485084-41.885302 9.522347-28.018818 18.220874 31.902537-11.036054L93.254906 63.64675 56.167321 81.60214 33.314869 103.0345l26.889435-14.367671 33.050602-25.353035-31.695704 26.427197-13.247053 27.943529 44.942757-54.214686z" style="fill:green;fill-rule:evenodd;stroke:none" transform="matrix(3 0 0 3 1.125 1.126)"/>
      <path style="fill:green;fill-rule:evenodd;stroke:none" d="m93.254906 63.469834 37.143904-36.237871 33.86217-11.007977-28.1305 14.617388-42.875574 32.352868 42.718314-30.722666 34.39269-2.512792-31.97165 12.053458-45.139354 21.305361 45.217334-19.752275 33.83551.657994-31.61198 7.375922-47.440864 11.434952 47.481654-10.578877 33.13594 8.233564-32.88694.607638-47.730654 2.159905 46.867764-.350899 30.85356 12.550351-34.20994-3.71263-43.511384-8.205672 45.238244 10.081171 24.66588 17.66205-29.10842-10.197819L93.254906 63.64675l39.881704 18.793625 20.05833 20.594125-25.49237-12.411789-34.447664-27.308917 34.210414 28.662491 10.73234 25.708235-44.942754-54.214686z" transform="matrix(3 0 0 3 1.125 1.126)"/>
    </g>
    <path style="fill:#d9871b;fill-opacity:1;fill-rule:evenodd;stroke:#000;stroke-width:3px;stroke-linecap:butt;stroke-linejoin:miter;stroke-opacity:1" d="m93.139718-10.600775-9.433839-4.610295-8.801472-34.786764 4.610295-20.536764-8.382354-2.514705-.838236-12.154413-20.536764-35.625004v-29.75735l43.38237-51.13235" transform="translate(187.75 209.96943)"/>
    <g style="fill:#d9871b;fill-opacity:1">
      <path style="fill:#d9871b;fill-opacity:1;fill-rule:evenodd;stroke:#000;stroke-width:1px;stroke-linecap:butt;stroke-linejoin:miter;stroke-opacity:1" d="m105.06128 30.176474 3.63235 1.67647-1.81617 2.794118-2.2353 1.955882-.97794 2.375-2.375-1.816176 3.77206-6.985294zM81.448528 30.176474l-3.632353 1.67647 1.816177 2.794118 2.235294 1.955882.977941 2.375 2.375-1.816176-3.772059-6.985294z" transform="matrix(3 0 0 3 1.125 1.126)"/>
    </g>
    <path style="fill:#d9871b;fill-opacity:1;fill-rule:evenodd;stroke:#000;stroke-width:3px;stroke-linecap:butt;stroke-linejoin:miter;stroke-opacity:1" d="m93.125-201.71843-43.40625 51.09375v29.8125L70.25-85.18718l.84375 12.09375 8.4375 2.53125-4.59375 20.53125L83.75-15.24968l9.375 4.6875 9.46875-4.6875 8.8125-34.78125-4.6875-20.53125 8.4375-2.53125L116-85.18718l20.53125-35.625v-29.8125L93.125-201.71843z" transform="translate(187.75 209.96943)"/>
    <path style="fill:#d9871b;fill-opacity:1;fill-rule:evenodd;stroke:#000;stroke-width:3px;stroke-linecap:butt;stroke-linejoin:miter;stroke-opacity:1" d="m54.367643-121.66695 15.926469-8.38235 12.992649.83823 2.095587 13.41177-3.352941 2.09558-24.308823-.41911-3.352941-7.54412z" transform="translate(187.75 209.96943)"/>
    <path style="fill:#d9871b;fill-opacity:1;fill-rule:evenodd;stroke:#000;stroke-width:3px;stroke-linecap:butt;stroke-linejoin:miter;stroke-opacity:1" d="m59.816171-121.66695 9.22059-2.51471 11.316177.41912" transform="translate(187.75 209.96943)"/>
    <path style="fill:none;stroke:#000;stroke-width:3px;stroke-linecap:butt;stroke-linejoin:miter;stroke-opacity:1" d="m66.102938-122.50519 2.933823 5.02941h6.705882l1.257351-6.28676" transform="translate(187.75 209.96943)"/>
    <path style="fill:none;stroke:#000;stroke-width:3px;stroke-linecap:butt;stroke-linejoin:miter;stroke-opacity:1" d="m50.176466-136.33607 21.794118-14.25 14.25-.83823.838236 20.95588 6.080898 13.83088-4.823547 10.47794" transform="translate(187.75 209.96943)"/>
    <path style="fill:#d9871b;fill-opacity:1;fill-rule:evenodd;stroke:#000;stroke-width:3px;stroke-linecap:butt;stroke-linejoin:miter;stroke-opacity:1" d="m82.029407-106.57872 1.257354 4.19118 3.352941 1.67647 2.095587 4.191177h4.404429M93.139718-91.49048l-11.110311.419118-7.125 4.610295 6.705882 5.02941 11.529429.419118M84.544112-87.299303l8.595606.419118M78.676466-62.99048l14.463252.838236M76.161761-55.027244l16.977957-.419118M76.161761-47.902244l16.977957.419115" transform="translate(187.75 209.96943)"/>
    <path d="m93.139718-10.600775 9.433842-4.610295 8.80147-34.786764-4.6103-20.536764 8.38237-2.514705.83823-12.154413 20.53674-35.625004v-29.75735l-43.382352-51.13235" style="fill:#d9871b;fill-opacity:1;fill-rule:evenodd;stroke:#000;stroke-width:3px;stroke-linecap:butt;stroke-linejoin:miter;stroke-opacity:1" transform="translate(187.75 209.96943)"/>
    <path d="m131.91179-121.66695-15.92646-8.38235-12.99265.83823-2.09559 13.41177 3.35294 2.09558 24.30881-.41911 3.35295-7.54412z" style="fill:#d9871b;fill-opacity:1;fill-rule:evenodd;stroke:#000;stroke-width:3px;stroke-linecap:butt;stroke-linejoin:miter;stroke-opacity:1" transform="translate(187.75 209.96943)"/>
    <path d="m126.46325-121.66695-9.22059-2.51471-11.31616.41912" style="fill:#d9871b;fill-opacity:1;fill-rule:evenodd;stroke:#000;stroke-width:3px;stroke-linecap:butt;stroke-linejoin:miter;stroke-opacity:1" transform="translate(187.75 209.96943)"/>
    <path d="m120.17648-122.50519-2.93382 5.02941h-6.70587l-1.25735-6.28676" style="fill:none;stroke:#000;stroke-width:3px;stroke-linecap:butt;stroke-linejoin:miter;stroke-opacity:1" transform="translate(187.75 209.96943)"/>
    <path d="m136.10297-136.33607-21.79413-14.25-14.24999-.83823-.838234 20.95588-6.080898 13.83088 4.823547 10.47794" style="fill:none;stroke:#000;stroke-width:3px;stroke-linecap:butt;stroke-linejoin:miter;stroke-opacity:1" transform="translate(187.75 209.96943)"/>
    <path d="m104.25003-106.57872-1.25735 4.19118-3.352946 1.67647-2.095587 4.191177h-4.404429M93.139718-91.49048l11.110312.419118 7.125 4.610295-6.70588 5.02941-11.529432.419118M101.73532-87.299303l-8.595602.419118M107.60297-62.99048l-14.463252.838236M110.11768-55.027244l-16.977962-.419118M110.11768-47.902244l-16.977962.419115M79.661429-34.120755l13.478289.468508 13.527682-.517902M104.22752-24.629231l-11.087802 1.03581-10.791433-.739449" style="fill:#d9871b;fill-opacity:1;fill-rule:evenodd;stroke:#000;stroke-width:3px;stroke-linecap:butt;stroke-linejoin:miter;stroke-opacity:1" transform="translate(187.75 209.96943)"/>
    <path style="fill:none;stroke:#000;stroke-width:3px;stroke-linecap:butt;stroke-linejoin:miter;stroke-opacity:1" d="m79.933817-70.534598 25.775733.20955" transform="translate(187.75 209.96943)"/>
    <path style="fill:#d9871b;fill-opacity:1;fill-rule:evenodd;stroke:#000;stroke-width:3px;stroke-linecap:butt;stroke-linejoin:miter;stroke-opacity:1;display:inline" d="M54.36764 199.37716c-2.235954 24.58851-8.559624 50.81208-.419115 71.25 3.911766-7.72116 6.985296-10.7424 10.897059-46.10295-6.191646 29.148-5.227266 36.43983-2.514705 47.77941 5.331687-3.81435 8.483388-11.54529 10.477938-43.1691-4.525284 35.60085-1.640175 38.71542.419121 43.58823 5.57427 1.09671 7.663107-16.27068 8.801469-44.00736-1.601001 34.66368-.07476 48.45765 5.029413 47.36031 3.693249-6.90162 8.770494-6.19128 6.080898-48.19854 3.840681 41.46489 7.681362 44.54994 11.522042 50.29413 2.65796-5.37597 4.62068-13.23498-.41912-46.10295 6.98277 37.97982 9.52686 40.45017 12.15441 43.58823 2.7399-3.0756 3.54231-14.82648-.41913-46.94115 3.25053 24.86697 6.53778 33.25716 10.89708 41.49261-.0837-12.40518-.0906-23.81166-1.25736-50.2941 3.71136 22.3587 4.4316 35.47872 9.22059 50.2941 1.15434-21.18684.1632-22.07943-1.67646-66.22059-5.04117-9.10485-9.13647-22.01436-40.022052-24.30879-17.203794 2.60592-29.026311-1.01976-38.772078 19.69851z" transform="translate(187.75 209.96943)"/>
    <path d="M93.139718 141.53893c-33.060513 3.49581-58.748397 45.96042-51.764721 86.75733 6.339957-13.49154-1.062603-6.36933 11.316177-28.9191-2.393034 10.94964-1.789881 21.04023 2.514705 29.75733 5.576019-8.81367 10.17738-17.34465 11.316177-30.59556-.450696 10.43178.1824 18.47898 4.191177 25.56615 6.809565-5.10057 7.260936-14.56185 8.801469-25.98525.62391 13.54062-.28095 18.95367 6.705882 31.43379 4.774782-9.73269 6.38673-19.16079 6.919134-31.01469.572535 13.43373 1.229271 20.63085 7.330862 31.85295 4.37857-14.9574 4.77036-14.74482 3.77206-31.85298 1.77683 14.74782 2.86782 20.80851 7.96324 28.91916.92616-9.53106 6.47276-12.01488 2.09558-24.72795 9.58359 6.14724 7.70889 11.57469 10.89705 23.05146.75447.40041 3.58551-10.86342-1.25733-27.66177 15.89157 21.62547 22.63233 30.17646 22.63233 30.17646-.2271-27.7872-5.46561-78.87513-53.433792-86.75733z" style="fill:#d9871b;fill-opacity:1;fill-rule:evenodd;stroke:#000;stroke-width:3px;stroke-linecap:butt;stroke-linejoin:miter;stroke-opacity:1;display:inline" transform="translate(187.75 209.96943)"/>
    <path style="fill:#d9871b;fill-opacity:1;fill-rule:evenodd;stroke:#000;stroke-width:3px;stroke-linecap:butt;stroke-linejoin:miter;stroke-opacity:1;display:inline" d="M93.139718 123.51688c-33.060513 3.49581-66.292515 36.73983-59.308839 77.53674 6.339957-13.49154 10.253574-14.75169 22.632354-37.30146-2.393034 10.94964-3.466353 14.33436.838233 23.05146 5.576019-8.81367 10.17738-18.60201 11.316177-31.85292-.450696 10.43178.601512 19.73634 4.610295 26.82351 6.809565-5.10057 6.841818-18.33393 8.382351-29.75733.62391 13.54062-.28095 27.33603 6.705882 39.81615 4.774782-9.73269 4.291143-22.09461 4.823547-33.94851.572535 13.43373 2.067507 26.49849 8.169102 37.72059 4.37856-14.9574 2.67476-32.34774 1.67647-49.4559 1.77683 14.74782 4.12517 28.35261 9.22059 36.46326.92617-9.53106 3.11981-18.30165-1.25735-31.01472 9.58357 6.14724 11.48095 18.69969 14.66911 30.17646.75447.40041 1.48992-7.51047-3.35292-24.30882 15.89157 21.62547 27.66174 45.68382 27.66174 45.68382-.2271-27.7872-8.81856-71.75013-56.786742-79.63233z" transform="translate(187.75 209.96943)"/>
    <path style="fill:green;fill-rule:evenodd;stroke:none;display:inline" d="M93.139718 13.28893-16.463239 82.024222v-.838233l-3.454635 92.416491 26.171235-73.7298 44.411898-49.166628L9.808745 101.38795l-3.282201 81.28407 28.836987-71.59722 30.850644-54.940614L37.32197 111.6688l-4.217412 87.62412 29.265483-83.41524 20.983401-55.647237-18.872514 53.646687 9.691692 93.84027 17.040753-90.23742 1.926345-56.94459 1.926345 56.9004 25.617267 90.91794-.37098-90.3498-9.88293-59.076003 12.8718 58.260063 36.17049 78.81156-10.37115-84.28989-16.23915-53.403162 19.34472 50.591382 42.77652 76.14504-20.51421-84.86517-34.60881-45.831249 42.05127 49.261209 33.44517 74.53314-6.89184-89.740506L93.139718 13.28893z" transform="translate(187.75 209.96943)"/>
    <path d="m16.596212 86.998086 1.679378 4.050266-2.766035 8.989618 5.532071-4.050269 1.185443 3.457544-10.076271 8.495675-1.481805-3.65511 5.927219-17.287724zM23.807661 101.81613l1.876953 2.66725-9.48355 12.54595-1.778166-3.65512 9.384763-11.55808zM27.462779 107.24942l2.173314 2.86482-8.594467 10.17506 3.25997 5.53207-2.568461 2.96361-4.741775-9.08841 10.471419-12.44715zM34.476654 116.14024l2.469675 2.96361-8.792041 12.54595 4.050266 5.23571-2.370888 3.35876-6.618727-9.18719 11.261715-14.91684zM43.367482 125.03107l8.298106 6.61873-2.568461 2.76603-4.741775-4.24784-2.864822 4.44542 5.235709 4.44541-2.2721 3.35876-5.23571-4.44542-3.062396 4.44542 5.136923 4.64299-2.667249 3.65512-7.606597-8.19932 12.348372-17.4853zM62.03125 138.28125l-14.21875 21.3125s1.866056 1.99404 5.71875 4.5625c3.852693 2.56846 7.03125-1.28126 7.03125-1.28125 0 0 7.094775-10.27827 7.6875-11.5625 1.706847-2.91511 1.635532-7.12276-1.28125-9.6875l-4.9375-3.34375zm.90625 5.40625 1.28125.8125c1.336192.68778 1.712912 2.71287.5 4.34375-.59272 1.28422-6.625 10.28125-6.625 10.28125 0 .00001-1.593928 2.219-3.65625.96875-.632156-.38322-1.78125-1.1875-1.78125-1.1875L62.9375 143.6875zM75.275675 145.38118l10.273845 3.95149-2.2721 4.64298-6.322367-2.86483-3.259969 5.92723 5.630857 2.76603-2.370887 4.24784-5.334497-2.66725-3.753905 5.82844 6.717514 3.65512-2.667249 4.84056-10.866567-6.51994 14.225325-23.80767zM119.43345 173.04154l-15.80591-24.9931 4.34662-1.5806 5.53207 8.89083-.29636-11.3605 3.65512-1.4818.0988 10.37263 15.70714 11.06414-3.25997 2.66725-12.54595-9.8787-.0988 4.24784 6.51994 9.77991-3.8527 2.2721zM120.12496 141.23214l3.85269-2.37089 14.32412 20.84405-3.35876 2.66725-14.81805-21.14041zM141.16659 157.63077l-14.91684-20.25133 4.24784-2.46967 12.54595 8.2981-8.69325-11.06414 2.46967-1.97574 13.73139 17.68287-2.76604 2.76604-14.42289-8.89083 10.17505 14.02775-2.37088 1.87695zM145.612 122.5614l2.37088 2.17331s-2.98837 3.48011-1.67937 4.93935c1.16703 1.30098 2.49662.89665 4.14905.49393 1.85029-.45094 4.52042-.2193 6.02601 1.58059 2.0043 2.3961 1.72877 6.12481-.44454 9.43416-1.59488 2.42854-2.02514 2.81543-2.02514 2.81543l-2.76603-2.76603c1.74315-2.0319 3.73428-5.40049 1.87695-7.01388-1.91015-1.65926-4.60133-.14422-6.27297-.14817-1.62225-.004-3.47923-.81729-4.49481-2.42028-1.57929-2.49274-.3139-5.30958.69151-6.71753.97096-1.3597 2.56846-2.37088 2.56846-2.37088zM161.31913 133.42796l-12.84231-13.6326 2.46968-2.66725 4.44541 4.84056 2.2721-3.25997-4.05026-4.64298 2.17331-2.66725 11.21232 12.79292-1.62998 2.9636-5.72965-6.22358-2.46967 3.40815 6.22358 6.51994-2.07453 2.56846zM161.40625 103.6875l-1.875 2.96875 8.59375 15.3125 1.78125-2.5625-2.75-5.25 1.5625-3.34375 3.46875 2.5625 1.46875-2.78125-12.25-6.90625zm1.40625 3.375 3.9375 2.46875-1.28125 2.25-2.65625-4.71875zM165.81772 96.179677l1.8883.939794c-.90876 1.172395-1.10866 2.585576-.44689 3.165989.86065.75486 1.98075.19094 3.22875-.27879 1.14172-.429727 2.47488-.646233 3.84671-.002 1.36047.63844 2.36171 2.99155 1.0354 6.50577-.6661 1.76493-.36386 1.09677-.36386 1.09677l-2.45499-1.08207c.73871-1.42415 1.46865-3.42496.0387-4.22116-1.13882-.63408-2.33028.25741-3.46194.74118-1.17608.50275-2.4022.33358-3.41675-.38288-1.94345-1.37242-1.48292-3.496736-1.0972-4.551797.3725-1.018906 1.20379-1.930356 1.20379-1.930356zM169.90948 88.136736l-.86812 2.493594 7.99867 9.967.86055-2.178175-2.60823-3.448387.60253-2.721513 3.51592 1.247337.5179-2.1917-10.01922-3.168156zm1.4297 2.274129 3.03279 1.202473-.56245 1.867726-2.47034-3.070199z" style="fill:#fff;fill-rule:evenodd;stroke:none;display:inline" transform="matrix(3 0 0 3 1.125 1.126)"/>
    <path style="color:#000;fill:none;stroke:#000;stroke-width:3px;stroke-linecap:butt;stroke-linejoin:miter;stroke-miterlimit:4;stroke-opacity:1;stroke-dasharray:none;stroke-dashoffset:0;marker:none;visibility:visible;display:inline;overflow:visible;enable-background:accumulate" d="m125.15935-163.24509-2.16135.98787-30.11809-11.75566-29.920507 12.1508-1.865008-1.77816" transform="translate(187.75 209.96943)"/>
  </g>
</svg>
