<?xml version="1.0" encoding="UTF-8"?><svg id="Layer_1" xmlns="http://www.w3.org/2000/svg" viewBox="0 0 73 78"><defs><style>.cls-1{fill:none;}.cls-2{fill:#fff;}</style></defs><polygon class="cls-1" points="0 0 0 78 73 78 73 0 0 0 0 0"/><g><path class="cls-2" d="m15.55,57.89v4.2c0,.7-.22,1.25-.65,1.65-.44.41-1.03.61-1.79.61s-1.33-.2-1.77-.59c-.44-.39-.66-.93-.67-1.62v-4.24h1.31v4.2c0,.42.1.72.3.91.2.19.48.29.83.29.74,0,1.11-.39,1.12-1.16v-4.24h1.32Z"/><polygon class="cls-2" points="21.8 64.26 20.49 64.26 17.93 60.07 17.93 64.26 16.62 64.26 16.62 57.89 17.93 57.89 20.49 62.09 20.49 57.89 21.8 57.89 21.8 64.26 21.8 64.26"/><polygon class="cls-2" points="25.32 62.04 22.86 62.04 22.86 61.02 25.32 61.02 25.32 62.04 25.32 62.04"/><polygon class="cls-2" points="31.61 64.26 30.29 64.26 30.29 61.53 27.73 61.53 27.73 64.26 26.42 64.26 26.42 57.89 27.73 57.89 27.73 60.47 30.29 60.47 30.29 57.89 31.61 57.89 31.61 64.26 31.61 64.26"/><path class="cls-2" d="m36.43,62.95h-2.3l-.44,1.31h-1.4l2.37-6.37h1.22l2.38,6.37h-1.4l-.44-1.31h0Zm-1.95-1.06h1.59l-.8-2.38-.79,2.38h0Z"/><path class="cls-2" d="m38.86,64.26v-6.37h2.23c.77,0,1.36.15,1.76.44.4.3.6.73.6,1.3,0,.31-.08.59-.24.82-.16.24-.38.41-.67.52.33.08.58.25.77.49s.28.55.28.91c0,.61-.2,1.08-.59,1.39-.39.32-.95.48-1.67.48h-2.48Zm1.31-3.7h.97c.66-.01.99-.28.99-.79,0-.29-.08-.5-.25-.62-.17-.13-.43-.19-.79-.19h-.92v1.61h0Zm0,.93v1.72h1.12c.31,0,.55-.07.72-.22.17-.15.26-.35.26-.61,0-.58-.3-.88-.91-.89h-1.2Z"/><polygon class="cls-2" points="45.98 64.26 44.66 64.26 44.66 57.89 45.98 57.89 45.98 64.26 45.98 64.26"/><polygon class="cls-2" points="51.86 58.95 49.91 58.95 49.91 64.26 48.6 64.26 48.6 58.95 46.67 58.95 46.67 57.89 51.86 57.89 51.86 58.95 51.86 58.95"/><path class="cls-2" d="m55.68,62.95h-2.3l-.44,1.31h-1.4l2.37-6.37h1.22l2.38,6.37h-1.4l-.44-1.31h0Zm-1.95-1.06h1.59l-.8-2.38-.79,2.38h0Z"/><polygon class="cls-2" points="62.38 58.95 60.43 58.95 60.43 64.26 59.12 64.26 59.12 58.95 57.19 58.95 57.19 57.89 62.38 57.89 62.38 58.95 62.38 58.95"/><path class="cls-2" d="m29.84,53.92c1.67-2.27,6.51-4.84,11.2-4.84s9.99,2.72,11.96,1.21c0,0-2.12,1.82-6.36,1.82s-5.9-2.12-8.78-2.12-6.05,2.27-7.27,4.24l-.76-.3h0Z"/><path class="cls-2" d="m44.83,48.77s1.36-.76,2.12-2.27c.76-1.51,2.72-3.94,4.54-5.3,0,0-2.12,6.66-4.39,6.96,0,0-.3.15.3.15.61-.15,3.48-1.06,4.54-1.21,1.06-.15,3.48-.76,4.09-1.36.61-.61.91-.45.91-.45,0,0-2.72,4.54-7.72,4.54.15-.3-2.27-.45-4.39-1.06"/><path class="cls-2" d="m50.73,46.5s.45-.76.61-2.12c.15-1.36.91-4.39,3.33-7.72,0,0,.3,5.3-2.27,8.48,0,0-.15.45.15.15.3-.3,2.12-2.27,5.75-4.69,0,0,1.97-1.51,1.97-1.97,0-.15-1.51,7.27-9.54,7.87"/><path class="cls-2" d="m55.42,41.51s.15-.91.15-1.51c0-.76-.3-3.18-.3-4.24s.15-3.18.91-4.54c0,0,0,1.21.3,1.82.3.61.61,2.72.61,3.03s0,2.12-.61,3.03c0,0,.3-.15.76-.91.45-.76,1.36-1.97,2.72-3.48,1.36-1.36,1.82-2.72,1.82-2.72,0,0,.3,2.42-1.51,4.99-1.82,2.57-2.57,2.12-3.63,3.18,0,0-1.06,1.36-1.21,1.36"/><path class="cls-2" d="m58.3,35.6s0-1.51-.3-1.97c-.3-.45-1.97-3.48-1.67-7.11,0,0,.3-.3.76,1.21.45,1.51,1.21,1.97,1.51,3.33.3,1.51.3,2.12.3,2.12,0,0,.15.15.15,0s.15-2.12,1.06-3.94c.91-1.82,1.97-3.48,1.82-4.69,0,0,.45,0,.45,1.97-.15,1.97-.61,5.3-4.09,9.08"/><path class="cls-2" d="m59.2,29.7s-.61-1.36-1.06-1.82c-.45-.45-3.33-4.54-3.63-6.36,0,0,.3-.15.45.3.3.45,1.67,1.82,1.97,1.97.3.15,1.66,1.67,1.82,3.33,0,0,.15.15-.15-2.57-.3-2.72.91-4.54,0-6.36,0,0,1.36.15,2.12,5.75,0,0,0,1.97-1.06,4.39,0,.15-.3,1.36-.45,1.36"/><path class="cls-2" d="m58.14,23.64s-1.06-1.06-1.97-1.67c-.91-.45-3.63-3.18-4.09-5.15,0,0,.15-.15,1.06.91.61.91,1.36.45,3.33,2.88,0,0,.3.61.45.45.15,0,0-.61,0-.61,0,0-.45-1.51-.45-2.12s-.91-3.48-1.06-3.78c0,0,2.72,1.51,3.03,5.75,0,0-.15,3.18-.3,3.33"/><path class="cls-2" d="m55.87,19.1s.15-3.63-4.84-5.45c0,0,1.67,3.48,3.03,4.24,1.36.76,1.82,1.21,1.82,1.21"/><path class="cls-2" d="m43.16,53.92c-1.67-2.27-6.51-4.84-11.2-4.84s-9.99,2.72-11.96,1.21c0,0,2.12,1.82,6.36,1.82s5.9-2.12,8.78-2.12,6.05,2.27,7.27,4.24l.76-.3h0Z"/><path class="cls-2" d="m28.02,48.77s-1.36-.76-2.12-2.27c-.76-1.51-2.57-3.94-4.54-5.3,0,0,2.12,6.66,4.39,6.96,0,0,.3.15-.3.15-.61-.15-3.48-1.06-4.54-1.21-1.06-.15-3.48-.76-4.09-1.36-.61-.61-.91-.45-.91-.45,0,0,2.72,4.54,7.72,4.54,0-.3,2.42-.45,4.39-1.06"/><path class="cls-2" d="m22.27,46.5s-.45-.76-.61-2.12c-.15-1.36-.91-4.39-3.33-7.72,0,0-.3,5.3,2.27,8.48,0,0,.15.45-.15.15-.3-.3-2.12-2.27-5.75-4.69,0,0-1.97-1.51-1.97-1.97,0-.15,1.36,7.27,9.54,7.87"/><path class="cls-2" d="m17.58,41.51s-.15-.91-.15-1.51c0-.76.3-3.18.3-4.24s-.15-3.18-.91-4.54c0,0,0,1.21-.3,1.82-.3.61-.61,2.72-.61,3.03s0,2.12.61,3.03c0,0-.3-.15-.76-.91-.45-.76-1.36-1.97-2.72-3.48-1.36-1.36-1.82-2.72-1.82-2.72,0,0-.3,2.42,1.51,4.99,1.82,2.57,2.57,2.12,3.63,3.18-.15,0,1.06,1.36,1.21,1.36"/><path class="cls-2" d="m14.7,35.6s0-1.51.3-1.97c.3-.45,1.97-3.48,1.66-7.11,0,0-.3-.3-.76,1.21-.45,1.51-1.21,1.97-1.51,3.33-.3,1.51-.3,2.12-.3,2.12,0,0-.15.15-.15,0s-.15-2.12-1.06-3.94c-.91-1.82-1.97-3.48-1.82-4.69,0,0-.45,0-.45,1.97s.61,5.3,4.09,9.08"/><path class="cls-2" d="m13.8,29.7s.61-1.36,1.06-1.82c.45-.45,3.33-4.54,3.63-6.36,0,0-.3-.15-.45.3-.3.45-1.66,1.82-1.97,1.97-.45.3-1.97,1.82-1.97,3.48,0,0-.15.15.15-2.57.3-2.72-.91-4.54,0-6.36,0,0-1.36.15-2.12,5.75,0,0,0,1.97,1.06,4.39,0,0,.45,1.21.61,1.21"/><path class="cls-2" d="m14.86,23.64s1.06-1.06,1.97-1.67c.91-.45,3.63-3.18,4.09-5.15,0,0-.15-.15-1.06.91-.61.91-1.36.45-3.33,2.88,0,0-.3.61-.45.45-.15,0,.15-.61.15-.61,0,0,.45-1.51.45-2.12s.91-3.48,1.06-3.78c0,0-2.72,1.51-3.03,5.75-.15,0,0,3.18.15,3.33"/><path class="cls-2" d="m17.13,19.1s-.15-3.63,4.84-5.45c0,0-1.66,3.48-3.03,4.24-1.36.76-1.82,1.21-1.82,1.21"/><path class="cls-2" d="m36.5,13.98c-9.72,0-17.6,6.98-17.6,15.59s7.88,15.59,17.6,15.59,17.6-6.98,17.6-15.59-7.88-15.59-17.6-15.59h0Zm1.78,9.93c.08.09.38.47.81,1.03-.42-.37-.97-.6-1.58-.6-1.32,0-2.38,1.07-2.38,2.38s1.07,2.38,2.38,2.38c.36,0,.7-.08,1.01-.23-.24.17-.38.26-.38.26,0,0-.86.66-2.27-.05-.56-.28-1.59-.85-2.64-1.43,1.03-1.9,1.9-3.53,1.97-3.7.93-1.88,1.69-1.83,3.08-.05h0Zm-5.99,5.5c1.29.7,2.42,1.3,2.42,1.3,0,0,.35.1.35.71l-.06,2.55c-2.28.03-4.08.05-4.24.05-.95,0-.63-.65-.38-1.09.48-.88,1.19-2.18,1.91-3.52h0Zm6.54,3.32s-.08-1.36,1.13-2.07l2.31-1.55c1.67,2.2,3.09,4.08,3.23,4.27.14.2.12.45-.4.45-.39,0-3,.04-6.25.08l-.02-1.19h0Zm.37-4.31c.44-.43.71-1.03.71-1.69,0-.38-.09-.75-.25-1.07.37.48.78,1.02,1.22,1.6-.62.43-1.2.83-1.67,1.16h0Zm-17.24,1.5c0-6.73,6.32-12.19,14.17-12.34-.93,1.7-2.99,5.47-4.89,8.96-.74-.42-1.25-.71-1.25-.71,0,0-1.12-.46-1.59.25,0,0-.58.81.23,1.31.24.15.87.5,1.64.92-1.66,3.04-3.01,5.52-3.06,5.62-.86,1.74.38,2.67,2.39,2.7.21,0,2.45-.02,5.35-.05l-.14,5.62c-7.23-.7-12.86-5.92-12.86-12.27h0Zm17.06,12.15l-.11-5.53c4.09-.04,8.31-.08,9.86-.09-2.13,2.91-5.64,5-9.75,5.62h0Zm6.24-14.96l1.71-1.14s1.01-.71.5-1.51c-.5-.81-1.31-.76-2.42-.05-.22.14-.63.41-1.14.76l-5.12-7.44c6.9.95,12.17,6.05,12.17,12.19,0,1.48-.31,2.9-.87,4.21l-4.83-7.02h0Z"/></g></svg>
